<?xml version="1.0" encoding="UTF-8"?>
<svg id="Layer_1" xmlns="http://www.w3.org/2000/svg" version="1.1" viewBox="0 0 237.3 60.7">
  <!-- Generator: Adobe Illustrator 30.3.0, SVG Export Plug-In . SVG Version: 2.1.3 Build 182)  -->
  <defs>
    <style>
      .st0, .st1 {
        fill: #231f20;
      }

      .st1 {
        font-family: DINCondensed-Regular, 'DIN Condensed';
        font-size: 11.2px;
      }
    </style>
  </defs>
  <g>
    <g>
      <g>
        <path class="st0" d="M108.8,31.4h-3.9v2.3h3.8v1.8h-3.8v3.7h-1.9v-9.7h5.8v1.8Z"/>
        <path class="st0" d="M118.4,37.9c-1,1-2.2,1.5-3.6,1.5s-2.6-.5-3.6-1.5c-1-1-1.5-2.2-1.5-3.6s.5-2.6,1.5-3.6c1-1,2.2-1.5,3.6-1.5s2.6.5,3.6,1.5c1,1,1.5,2.2,1.5,3.6s-.5,2.6-1.5,3.6ZM112.6,36.6c.6.6,1.3.9,2.2.9s1.6-.3,2.2-.9c.6-.6.9-1.4.9-2.3s-.3-1.7-.9-2.3c-.6-.6-1.3-.9-2.2-.9s-1.6.3-2.2.9c-.6.6-.9,1.4-.9,2.3s.3,1.7.9,2.3Z"/>
        <path class="st0" d="M124.7,39.4c-1.1,0-2-.3-2.7-.9-.7-.6-1-1.4-1-2.4v-6.5h1.9v6.4c0,.5.1.9.4,1.2.3.3.7.4,1.4.4s1.1-.1,1.4-.4c.3-.3.4-.7.4-1.2v-6.4h1.9v6.5c0,1-.3,1.8-1,2.4-.7.6-1.6.9-2.7.9Z"/>
        <path class="st0" d="M135.4,39.2l-2-3.4h-1.4v3.4h-1.9v-9.7h3.9c.9,0,1.7.3,2.3.9.6.6.9,1.4.9,2.3s-.2,1.2-.5,1.7c-.3.5-.8.9-1.4,1.2l2.1,3.6h-2.1ZM132,31.3v2.9h2c.4,0,.7-.1.9-.4.3-.3.4-.6.4-1s-.1-.7-.4-1c-.3-.3-.6-.4-.9-.4h-2Z"/>
        <path class="st0" d="M140.3,39.2l-2.6-9.7h2l1.9,7.2,2-7.2h1.7l2,7.1,1.8-7.1h1.8l-2.5,9.7h-2.2l-1.8-6.4-1.8,6.4h-2.3Z"/>
        <path class="st0" d="M152.2,29.5h1.9v9.7h-1.9v-9.7Z"/>
        <path class="st0" d="M161.5,29.5h1.9v9.7h-1.4l-4.1-5.9v5.9h-1.9v-9.7h1.4l4.1,5.9v-5.9Z"/>
        <path class="st0" d="M169.1,29.5c1.3,0,2.4.5,3.3,1.4.9.9,1.3,2.1,1.3,3.4s-.4,2.5-1.3,3.4c-.9.9-2,1.4-3.3,1.4h-3.8v-9.7h3.8ZM169.1,37.4c.8,0,1.5-.3,2-.8.5-.6.8-1.3.8-2.2s-.3-1.6-.8-2.2c-.5-.6-1.2-.8-2-.8h-1.9v6h1.9Z"/>
        <path class="st0" d="M178,39.4c-1,0-1.8-.2-2.4-.6-.7-.4-1.1-1-1.4-1.7l1.6-1c.4,1,1.1,1.5,2.2,1.5s.9,0,1.2-.3c.2-.2.4-.4.4-.7s-.2-.6-.5-.8c-.3-.2-.8-.4-1.6-.6-.4-.1-.8-.3-1.1-.4-.3-.1-.6-.3-.9-.5s-.5-.5-.7-.8c-.2-.3-.2-.7-.2-1.2,0-.9.3-1.6.9-2.1.6-.5,1.4-.8,2.2-.8s1.5.2,2.1.6c.6.4,1.1.9,1.4,1.6l-1.6.9c-.4-.8-1-1.2-1.8-1.2s-.7,0-.9.3c-.2.2-.3.4-.3.7s.1.6.4.7c.3.2.7.4,1.5.6.3,0,.5.2.7.2s.4.1.6.2c.3.1.5.2.6.3.1,0,.3.2.5.4.2.2.3.3.4.5,0,.2.2.4.2.6,0,.2.1.5.1.8,0,.9-.3,1.6-1,2.1s-1.5.8-2.5.8Z"/>
      </g>
      <g>
        <path class="st0" d="M104.4,51.8c-.3,0-.5,0-.6-.1-.2,0-.3-.2-.4-.4,0-.2-.1-.4-.2-.6s0-.5,0-.8v-.6h.7v.6c0,.4,0,.8,0,.9,0,.2.2.3.4.3s.3,0,.3-.1c0,0,.1-.2.1-.3s0-.3,0-.6,0-.5-.1-.7-.2-.4-.4-.6l-.4-.4c-.1-.1-.2-.3-.4-.4-.1-.1-.2-.3-.3-.5,0-.2-.1-.4-.1-.6s0-.6.1-.8c0-.2.2-.4.4-.5s.4-.2.8-.2.5,0,.6.1c.2,0,.3.2.3.4,0,.2.1.4.2.6,0,.2,0,.5,0,.7v.4h-.7v-.4c0-.3,0-.5,0-.6,0-.2,0-.3-.1-.4s-.2-.1-.3-.1-.2,0-.3,0-.1.1-.2.3c0,.1,0,.3,0,.5s0,.3,0,.4c0,.1.1.2.2.3s.2.2.3.3l.4.5c.2.2.4.5.6.8s.2.6.2,1,0,.6-.1.9-.2.4-.4.6c-.2.1-.4.2-.7.2Z"/>
        <path class="st0" d="M107.1,51.7v-6.3h1.3c.3,0,.5,0,.6.1.2,0,.3.2.4.4,0,.2.1.3.2.6,0,.2,0,.5,0,.7h0c0,.5,0,.9,0,1.2,0,.3-.2.5-.4.6-.2.1-.4.2-.7.2h-.5v2.5h-.7ZM107.8,48.6h.5c.1,0,.3,0,.3-.1s.1-.2.2-.4c0-.2,0-.5,0-.8h0c0-.5,0-.8,0-1,0-.2-.2-.3-.4-.3h-.5v2.6Z"/>
        <path class="st0" d="M112.2,51.8c-.3,0-.6,0-.7-.2-.2-.1-.3-.3-.4-.6,0-.3-.1-.6-.1-1v-2.8c0-.4,0-.7.1-.9,0-.3.2-.5.4-.6.2-.1.4-.2.8-.2s.5,0,.6.1.3.2.4.4c0,.2.1.3.2.6,0,.2,0,.5,0,.7v2.8c0,.4,0,.8-.1,1,0,.3-.2.5-.4.6-.2.1-.4.2-.7.2ZM112.2,51.2c.1,0,.2,0,.3-.1,0,0,.1-.2.1-.4s0-.4,0-.7v-2.8c0-.4,0-.7,0-.8,0-.2-.2-.3-.4-.3s-.3,0-.4.3c0,.2-.1.5-.1.8v2.8c0,.3,0,.6,0,.7,0,.2,0,.3.2.4,0,0,.2.1.3.1Z"/>
        <path class="st0" d="M115.1,51.7v-6.3h1.3c.3,0,.6,0,.7.2.2.1.3.3.3.5,0,.2,0,.5,0,.9s0,.7-.1.9c0,.2-.2.4-.5.4.1,0,.2,0,.3.1,0,0,.1.2.2.4,0,.2,0,.4,0,.7,0,.3,0,.6,0,1.1v.2c0,0,0,.2,0,.3,0,0,0,.2,0,.3,0,0,0,.2,0,.2,0,0,0,.1,0,.1h-.7s0,0,0-.1c0,0,0-.2,0-.3,0-.1,0-.3,0-.4,0-.2,0-.4,0-.6v-.7c0-.2,0-.4,0-.5,0-.1,0-.2-.1-.3s-.2,0-.4,0h-.4s0,3,0,3h-.7ZM115.8,48.1h.5c.1,0,.2,0,.3,0,0,0,.1-.2.1-.3,0-.2,0-.4,0-.7h0c0-.3,0-.5,0-.7s0-.2-.1-.3c0,0-.2,0-.3,0h-.5v2.1Z"/>
        <path class="st0" d="M119.5,51.7v-5.7h-.7v-.6h2.1v.6h-.6v5.7h-.7Z"/>
        <path class="st0" d="M123.2,51.8c-.3,0-.5,0-.6-.1-.2,0-.3-.2-.4-.4,0-.2-.1-.4-.2-.6s0-.5,0-.8v-.6h.7v.6c0,.4,0,.8,0,.9,0,.2.2.3.4.3s.3,0,.3-.1c0,0,.1-.2.1-.3s0-.3,0-.6,0-.5-.1-.7-.2-.4-.4-.6l-.4-.4c-.1-.1-.2-.3-.4-.4-.1-.1-.2-.3-.3-.5,0-.2-.1-.4-.1-.6s0-.6.1-.8c0-.2.2-.4.4-.5s.4-.2.8-.2.5,0,.6.1c.2,0,.3.2.3.4,0,.2.1.4.2.6,0,.2,0,.5,0,.7v.4h-.7v-.4c0-.3,0-.5,0-.6,0-.2,0-.3-.1-.4s-.2-.1-.3-.1-.2,0-.3,0-.1.1-.2.3c0,.1,0,.3,0,.5s0,.3,0,.4c0,.1.1.2.2.3s.2.2.3.3l.4.5c.2.2.4.5.6.8s.2.6.2,1,0,.6-.1.9-.2.4-.4.6c-.2.1-.4.2-.7.2Z"/>
        <path class="st0" d="M128.6,51.8c-.3,0-.6-.1-.8-.3s-.3-.5-.3-1,0-.6.1-.8.2-.5.4-.7c.1-.2.3-.4.5-.6-.1-.4-.3-.7-.4-1,0-.3-.1-.6-.1-.7,0-.4,0-.7.3-.9.2-.2.4-.3.8-.3s.4,0,.6.1c.1,0,.3.2.3.4,0,.2,0,.4,0,.7s0,.5-.1.7c0,.2-.2.4-.3.6-.1.2-.3.4-.4.6l.6,1.4c0-.2.2-.3.3-.5.1-.2.2-.3.3-.5l.3.5c-.1.2-.3.4-.4.6-.1.2-.2.4-.3.6l.5,1.2h-.7l-.3-.6c0,.1-.2.3-.3.4,0,.1-.2.2-.3.2s-.3,0-.5,0ZM128.7,51.2c0,0,.2,0,.3,0,0,0,.1-.1.2-.2,0-.1.1-.2.2-.4l-.6-1.5c0,.1-.2.3-.3.4,0,.2-.1.3-.2.5,0,.2,0,.3,0,.5,0,.3,0,.5,0,.6s.2.2.4.2ZM128.9,47.9c.1-.2.3-.4.3-.6,0-.2.1-.5.1-.7s0-.4,0-.5c0-.1-.2-.2-.3-.2s-.2,0-.2,0c0,0,0,.1-.1.2,0,0,0,.1,0,.2,0,0,0,.1,0,.2,0,.1,0,.3,0,.5,0,.2.1.5.2.8Z"/>
        <path class="st0" d="M134.5,51.7v-6.3h1.9v.6h-1.1v2.2h1.1v.6h-1.1v2.3h1.2v.6h-1.9Z"/>
        <path class="st0" d="M137.9,51.7v-6.3h.6l1.5,4.3v-1.8c0,0,0-2.5,0-2.5h.7v6.3h-.5l-1.4-4.3v1.6s0,2.7,0,2.7h-.7Z"/>
        <path class="st0" d="M142.5,51.7v-5.7h-.7v-.6h2.1v.6h-.6v5.7h-.7Z"/>
        <path class="st0" d="M145.3,51.7v-6.3h1.9v.6h-1.1v2.2h1.1v.6h-1.1v2.3h1.2v.6h-1.9Z"/>
        <path class="st0" d="M148.7,51.7v-6.3h1.3c.3,0,.6,0,.7.2.2.1.3.3.3.5,0,.2,0,.5,0,.9s0,.7-.1.9c0,.2-.2.4-.5.4.1,0,.2,0,.3.1s.1.2.2.4c0,.2,0,.4,0,.7s0,.6,0,1.1v.2c0,0,0,.2,0,.3,0,0,0,.2,0,.3,0,0,0,.2,0,.2s0,.1,0,.1h-.7s0,0,0-.1c0,0,0-.2,0-.3,0-.1,0-.3,0-.4s0-.4,0-.6v-.7c0-.2,0-.4,0-.5,0-.1,0-.2-.1-.3s-.2,0-.4,0h-.4s0,3,0,3h-.7ZM149.4,48.1h.5c.1,0,.2,0,.3,0,0,0,.1-.2.1-.3,0-.2,0-.4,0-.7h0c0-.3,0-.5,0-.7s0-.2-.1-.3-.2,0-.3,0h-.5v2.1Z"/>
        <path class="st0" d="M153.1,51.7v-5.7h-.7v-.6h2.1v.6h-.6v5.7h-.7Z"/>
        <path class="st0" d="M155.4,51.7l1-6.3h.9l1,6.3h-.7l-.2-1.2h-1.1l-.2,1.2h-.7ZM156.4,49.9h1l-.5-3.3h0l-.5,3.3Z"/>
        <path class="st0" d="M159.8,51.7v-6.3h.7v6.3h-.7Z"/>
        <path class="st0" d="M162.3,51.7v-6.3h.6l1.5,4.3v-1.8c0,0,0-2.5,0-2.5h.7v6.3h-.5l-1.4-4.3v1.6s0,2.7,0,2.7h-.7Z"/>
        <path class="st0" d="M166.6,51.7v-6.3h.9l1,5,.9-5h.9v6.3h-.6v-4.7c0,0-.9,4.7-.9,4.7h-.5l-1-4.7v2.4c0,0,0,2.4,0,2.4h-.6Z"/>
        <path class="st0" d="M172,51.7v-6.3h1.9v.6h-1.1v2.2h1.1v.6h-1.1v2.3h1.2v.6h-1.9Z"/>
        <path class="st0" d="M175.5,51.7v-6.3h.6l1.5,4.3v-1.8c0,0,0-2.5,0-2.5h.7v6.3h-.5l-1.4-4.3v1.6s0,2.7,0,2.7h-.7Z"/>
        <path class="st0" d="M180.1,51.7v-5.7h-.7v-.6h2.1v.6h-.6v5.7h-.7Z"/>
      </g>
    </g>
    <g>
      <polygon class="st0" points="41 31 65.8 31 67.6 25.6 41 25.6 41 31"/>
      <g>
        <path class="st0" d="M76.3,34.2l-5.2,10-5.5-10h-16.8v5.4h13.9c1.3,2.4,8.3,15.3,8.4,15.2.1,0,10.9-20.7,10.9-20.7h-5.7Z"/>
        <path class="st0" d="M84.9,34.2l-7.9,15,2.9,5.6,11-20.6s-5.9,0-6,0Z"/>
      </g>
    </g>
  </g>
  <text class="st1" transform="translate(113.3 13.6)"><tspan x="0" y="0">BY</tspan></text>
  <path class="st0" d="M94.1,9.3c-23.1,0-46.3,0-69.4,0H5.2c-.8,0-.8,1.3,0,1.3,23.1,0,46.3,0,69.4,0h19.5c.8,0,.8-1.3,0-1.3h0Z"/>
  <path class="st0" d="M228.4,9.3c-23.1,0-46.3,0-69.4,0h-19.5c-.8,0-.8,1.3,0,1.3,23.1,0,46.3,0,69.4,0h19.5c.8,0,.8-1.3,0-1.3h0Z"/>
</svg>