<?xml version="1.0" encoding="UTF-8"?>
<svg id="Layer_1" xmlns="http://www.w3.org/2000/svg" version="1.1" viewBox="0 0 90 67">
  <!-- Generator: Adobe Illustrator 30.3.0, SVG Export Plug-In . SVG Version: 2.1.3 Build 182)  -->
  <defs>
    <style>
      .st0 {
        fill: #231f20;
      }
    </style>
  </defs>
  <path class="st0" d="M73.9,32.7c-.7,3.3-2.4,6.1-5.3,7.8-1.9,1-4,1.5-6.2,1.5h-10.8s0-24.1,0-24.1c0-.4.4-.6.7-.6h11.6c.6,0,1,.2,1.5.3,4.8,1.2,7.5,5.6,8.4,10.3s.2,4,0,4.8ZM66.8,34.1c1.6-2.3,1.8-5.2.5-7.6-1.7-3.1-5.3-3.4-9-3.1v12.5s4,.1,4,.1c1.8,0,3.4-.4,4.4-2Z"/>
  <path class="st0" d="M25.4,55.7h-1.3c-.1-.2-.3-.3-.3-.5s.1-.5.3-.5c.5.3,1.1.3,1.4,0s.2-.8,0-1.3l-1.6-3.5c.4-.1.6,0,.9,0l1.5,3.3,1.5-3.2c.1-.1.6-.1.8,0l-2.4,5.2c-.1.3-.6.4-.6.7Z"/>
  <path class="st0" d="M34.2,28v5.9s-8.3,0-8.3,0v8c0,0-6.1,0-6.1,0-.4,0-.6-.3-.6-.7v-23.1c0-.6.3-.9.9-.9h16c.3,0,.5,0,.7.2s.2.4.2.6v5.4c0,0-11.1,0-11.1,0v4.6s8.3,0,8.3,0Z"/>
  <path class="st0" d="M46.8,41.9h-6.6s0-24.1,0-24.1c0-.4.4-.6.7-.6h5.2c.4,0,.6.2.7.6v24.1Z"/>
  <path class="st0" d="M60.4,54.1h-1.7s0-.9,0-.9c-1,1-2.3,1.3-3.7.9s-2.2-1.4-2.5-2.8c-.5-2.1.5-4.3,2.6-5,1.4-.4,2.7,0,3.6,1v-.9c.1,0,1.8,0,1.8,0v7.6ZM55.5,48.2c-1.3.5-1.7,2-1.1,3.1.5,1,1.8,1.5,2.9,1,1.1-.5,1.6-1.8,1.2-2.9s-1.7-1.8-3-1.3Z"/>
  <path class="st0" d="M44.8,54.1c-.5,0-1,0-1.6,0l-.2-.9c-1.6,1.6-4.2,1.4-5.5-.5-1-1.4-1-3.4,0-4.8s1.6-1.5,2.5-1.7,2.2.2,3,1c.1-.3.1-.6.2-.8h1.6s0,7.6,0,7.6ZM40,48.2c-1.3.5-1.7,1.9-1.3,3s1.7,1.6,2.8,1.2,1.8-1.7,1.4-2.9-1.6-1.8-2.9-1.4Z"/>
  <path class="st0" d="M49.8,50.1l3.2,3.9c-.8,0-1.6,0-2.4,0l-2.6-3.4v3.4s-1.9,0-1.9,0v-10.1s1.8,0,1.8,0v5.9s2.4-3.4,2.4-3.4h2.2s-2.7,3.6-2.7,3.6Z"/>
  <path class="st0" d="M68.4,46.5v7.6s-1.7,0-1.7,0v-.5c0,0-.1-.2-.2,0-.5.8-2,1-3.2.4-.8-.4-1.7-1.2-1.7-2.3v-5.2c0,0,1.8,0,1.8,0v4.6c0,.9.7,1.5,1.5,1.5,2.2,0,1.5-3.3,1.6-6h1.8Z"/>
  <polygon class="st0" points="36.3 52.2 36.4 54.1 31.4 54.1 31.4 44 33.3 44 33.3 52.2 36.3 52.2"/>
  <path class="st0" d="M72.3,54.1c-.6,0-1.2,0-1.8,0v-6s-.9,0-.9,0v-1.6s.9,0,.9,0v-2.5s1.9,0,1.9,0v2.3c.1.2.7.2,1.1.1v1.7s-1.1,0-1.1,0v5.9Z"/>
  <path class="st0" d="M20.2,50.2c.8-.8,2.1-.7,2.9,0s.9,2.2.2,3c-.7.9-2.2,1.1-3.1.3l-.3.5c0,.1-.6,0-.7,0-.1-1.9,0-3.9,0-5.9h.8s.1,2.2.1,2.2ZM21.2,53.3c.7.2,1.3-.2,1.6-.7s.3-1.2,0-1.7-1.1-.7-1.8-.4-.9.8-.8,1.5.3,1.1,1.1,1.2Z"/>
</svg>