<?xml version="1.0" encoding="UTF-8"?>
<svg id="Layer_1" xmlns="http://www.w3.org/2000/svg" version="1.1" viewBox="0 0 283.5 283.5">
  <!-- Generator: Adobe Illustrator 30.3.0, SVG Export Plug-In . SVG Version: 2.1.3 Build 182)  -->
  <defs>
    <style>
      .st0 {
        fill: #231f20;
      }
    </style>
  </defs>
  <g>
    <path class="st0" d="M107.1,35.6c.9-.8,3.1-1.8,4.4-2.2,6.8-2.2,27-2.3,33.4.6,5.6,2.6,6.9,8.5,7.3,13.9,1.7,23.9-1.3,49.5,0,73.6-.9,6-1.5,11.5-8.1,14-6.4,2.4-25.6,2.5-32.2.5-5.3-1.6-7.7-5.1-8.7-10.1.4-25.4-2.3-53.1-.6-78.4.3-3.8,1.4-9.3,4.5-11.9ZM125.1,51.1c-.5.4-.5,1.5-.6,2.1v62.9c0,2.6,2.9,2.9,4.8,1.7l.2-66.4c-.6-1-3.6-1.1-4.4-.3Z"/>
    <path class="st0" d="M93.2,136c-9.6,1.1-20.2,1.8-29.9,1.2-13.1-.8-17.9-4.8-18.7-17.4-1.4-22.9,1.1-47.2,0-70.3.6-4.8.7-10.4,4.8-13.9,5.4-4.5,22.4-4.2,29.4-3.4s12.2,3.2,13.9,11c.1.6.6,3.1.6,3.5v16.1h-21.1v-10c0-2.4-3.6-3.1-5.2-1.2v66.4c1.7.4,4.2,1,5.6-.2v-41.5h20.7v59.7Z"/>
    <polygon class="st0" points="238.3 33.4 238.3 50.6 225.8 50.6 225.8 58.3 237.4 58.3 237.4 75.5 225.8 75.5 225.8 136 203.4 136 203.4 33.4 238.3 33.4"/>
    <polygon class="st0" points="184 33.4 184 117.6 196.9 117.6 196.9 136 162.1 136 162.1 33.4 184 33.4"/>
  </g>
  <path class="st0" d="M156.7,142.5l7.9,47.7c.2,0,.7-.5.7-.6v-47.1h15.8v94.3h-20c-3-13.9-5-28.1-8.1-42.1-.2-.8-.4-1.7-.6-2.5s.4-1.1-.8-.9v45.4h-15.8v-94.3h20.7Z"/>
  <path class="st0" d="M127,236.8h-19.6v-18.8h-4.5v18.8h-18.4v-83.2c0-.7.8-3.7,1.1-4.5,1.2-3.6,3.5-5.7,7.2-6.7,6.1-1.8,22.2-1.9,27.9.8,2.1,1,3.8,2.8,4.8,5,.6,1.4,1.6,5.2,1.6,6.7v82.1ZM107.4,202.3v-43c-1-1.6-4.5-1-4.5.8v42.3h4.5Z"/>
  <path class="st0" d="M210.6,142.5v33.1c.9,0,.6,0,.7-.6,1.6-10.8,2.7-21.8,4.9-32.5h19.6l-8.1,39.2,10,55.1h-20c-2.8-15.2-4.1-30.7-6.4-46,0-.7.2-.6-.7-.6v46.6h-19.6v-94.3h19.6Z"/>
  <polygon class="st0" points="79.9 142.5 79.9 158.3 70.5 158.3 70.5 236.8 51 236.8 51 158.3 41.9 158.3 41.9 142.5 79.9 142.5"/>
</svg>