<?xml version="1.0" encoding="UTF-8"?>
<svg id="Layer_1" xmlns="http://www.w3.org/2000/svg" version="1.1" viewBox="0 0 156.7 68">
  <!-- Generator: Adobe Illustrator 30.3.0, SVG Export Plug-In . SVG Version: 2.1.3 Build 182)  -->
  <defs>
    <style>
      .st0 {
        fill: #231f20;
      }
    </style>
  </defs>
  <path class="st0" d="M33,12.2c10.6,1.6,18.3,10.5,18.3,21,0,10.5-7.6,19.5-18.2,21.1-11.7,1.8-22.6-6.4-24.4-18.1-1.7-11.4,6.4-22.2,18.2-24.1h6ZM27.4,16.3c-9.7,1.5-16,10.5-14.5,19.7,1.5,9.2,10.3,15.6,19.5,14.2,9.4-1.4,16-10.1,14.6-19.5-1.4-9.2-10-15.9-19.6-14.5Z"/>
  <path class="st0" d="M148,28v3.4s-2.4,0-2.4,0v12.3s-3.9,0-3.9,0v-12.2s-1.9,0-1.9,0v-3.5c.5.1,1.4.2,1.8,0v-5.1c.1,0,4,0,4,0v5.1s2.4.2,2.4.2Z"/>
  <path class="st0" d="M120.7,43.6h-3.6c0,0-.1-1.8-.1-1.8-2,2.3-5.1,3-8.1,1.9-2.6-.9-4.4-3.5-4.9-6.5-.6-4.4,1.9-8.8,6.4-9.6,2.6-.5,5.1.3,6.6,2.3v-2c.1,0,3.7,0,3.7,0v15.7ZM116.8,37.3c.8-2.6-.5-5.1-2.7-5.8s-4.9.2-5.9,2.5c-1.1,2.5.1,5.3,2.5,6.2,2.5.9,5.2-.2,6.1-2.8Z"/>
  <path class="st0" d="M88.4,43.6h-3.5c0-.6.1-1-.1-1.8-2,2.2-4.9,2.9-7.9,1.9s-4.4-3.2-5-6.1c-.9-4.5,1.5-9,6-10.1,2.6-.6,5.3.2,6.9,2.2.3-.8.1-1.4.2-1.9h3.5s0,15.7,0,15.7ZM84.5,37.1c.7-2.6-.7-5.1-3-5.7s-4.8.4-5.7,2.8c-.9,2.6.4,5.2,2.8,6s5.2-.4,5.9-3.1Z"/>
  <polygon class="st0" points="98.9 35.6 105.5 43.6 100.3 43.6 95.1 36.7 95 43.7 91.2 43.7 91.2 22.7 95 22.7 95.1 34.9 100 27.9 104.6 27.9 98.9 35.6"/>
  <path class="st0" d="M137.4,27.9v15.8s-3.4,0-3.4,0c-.2-.2-.3-.5-.5-.9-1.1,1.1-2.5,1.5-4.1,1.5-3.8-.2-6.2-3-6.2-6.7v-9.6s3.9,0,3.9,0v9c0,1.4.7,2.6,1.7,3.1s2.8.6,3.7-.4,1.1-2.3,1.1-3.5v-8.2s3.9,0,3.9,0Z"/>
  <polygon class="st0" points="71 39.8 71 43.7 60.6 43.7 60.6 22.7 64.5 22.7 64.5 39.8 71 39.8"/>
  <path class="st0" d="M36.5,43.8h-11.2s0-4.7,0-4.7h11.2c0,1.7,0,3,0,4.7Z"/>
  <polygon class="st0" points="31 35.6 25.3 35.7 25.3 31 31 31 31 35.6"/>
  <polygon class="st0" points="31 27.4 25.3 27.5 25.3 22.8 31 22.8 31 27.4"/>
</svg>