<?xml version="1.0" encoding="UTF-8"?>
<svg id="Layer_1" xmlns="http://www.w3.org/2000/svg" version="1.1" viewBox="0 0 285.9 305.3">
  <!-- Generator: Adobe Illustrator 30.3.0, SVG Export Plug-In . SVG Version: 2.1.3 Build 182)  -->
  <defs>
    <style>
      .st0 {
        fill: #285541;
      }
    </style>
  </defs>
  <g>
    <path class="st0" d="M95.6,26.1c1.2-1,4.2-2.4,5.8-2.9,9-2.9,35.8-3.1,44.3.8,7.4,3.4,9.2,11.3,9.7,18.4,2.2,31.7-1.7,65.7,0,97.6-1.2,7.9-2,15.3-10.7,18.6-8.5,3.2-34,3.3-42.7.7-7-2.1-10.3-6.8-11.5-13.5.5-33.7-3.1-70.5-.7-104,.4-5,1.8-12.3,5.9-15.8ZM119.5,46.6c-.6.6-.7,2-.7,2.8v83.5c0,3.5,3.8,3.8,6.4,2.2l.2-88.2c-.8-1.3-4.8-1.4-5.9-.4Z"/>
    <path class="st0" d="M77.1,159.3c-12.8,1.4-26.8,2.4-39.7,1.6-17.4-1.1-23.8-6.3-24.9-23-1.9-30.5,1.5-62.7,0-93.3.8-6.4.9-13.9,6.3-18.4,7.1-6,29.8-5.6,39.1-4.5,10.4,1.2,16.2,4.3,18.4,14.5s.8,4.1.8,4.6v21.4h-28v-13.3c0-3.2-4.8-4.1-6.9-1.6v88.1c2.2.5,5.6,1.3,7.4-.3v-55h27.4v79.2Z"/>
    <polygon class="st0" points="269.6 23.2 269.6 45.9 253.1 45.9 253.1 56.2 268.5 56.2 268.5 79 253.1 79 253.1 159.3 223.4 159.3 223.4 23.2 269.6 23.2"/>
    <polygon class="st0" points="197.6 23.2 197.6 134.9 214.8 134.9 214.8 159.3 168.5 159.3 168.5 23.2 197.6 23.2"/>
  </g>
  <path class="st0" d="M161.4,168l10.5,63.3c.3,0,1-.7,1-.7v-62.6h21v125.1h-26.5c-4-18.5-6.7-37.4-10.7-55.9-.2-1.1-.5-2.2-.8-3.3s.5-1.5-1-1.2v60.3h-21v-125.1h27.5Z"/>
  <path class="st0" d="M122,293.1h-26v-24.9h-6v24.9h-24.5v-110.4c0-.9,1.1-4.9,1.5-6,1.6-4.8,4.7-7.5,9.5-9,8.1-2.4,29.5-2.6,37,1,2.8,1.4,5.1,3.8,6.4,6.6s2.1,6.9,2.1,8.8v108.9ZM96,247.2v-57.1c-1.4-2.1-6-1.3-6,1v56.1h6Z"/>
  <path class="st0" d="M232.9,168v43.9c1.3,0,.9.1,1-.7,2.1-14.4,3.6-28.9,6.5-43.1h26l-10.8,52,13.3,73.1h-26.5c-3.7-20.2-5.5-40.7-8.5-61.1s.3-.8-1-.7v61.8h-26v-125.1h26Z"/>
  <polygon class="st0" points="59.5 168 59.5 188.9 47 188.9 47 293.1 21 293.1 21 188.9 9.1 188.9 9.1 168 59.5 168"/>
</svg>