<svg width="188" height="195" viewBox="0 0 188 195" fill="none" xmlns="http://www.w3.org/2000/svg">
<path d="M62.0952 3.67607C62.9524 2.91699 65.0476 1.96814 66.2857 1.5886C72.7619 -0.498878 92 -0.593765 98.0952 2.15791C103.429 4.62493 104.667 10.2232 105.048 15.347C106.667 38.0246 103.809 62.3152 105.048 85.1826C104.19 90.8757 103.619 96.0944 97.3333 98.4666C91.2381 100.744 72.9524 100.839 66.6666 98.941C61.619 97.4228 59.3333 94.1018 58.3809 89.3576C58.7619 65.2567 56.1904 38.9734 57.8095 14.9674C58.0952 11.3618 59.1428 6.14309 62.0952 3.67607ZM79.2381 18.3833C78.7619 18.7628 78.7619 19.8066 78.6666 20.3759V80.0588C78.6666 82.5258 81.4285 82.8105 83.2381 81.6718L83.4285 18.668C82.8571 17.7191 80 17.6242 79.2381 18.3833Z" fill="#231F20"/>
<path d="M48.857 98.9409C39.7141 99.9846 29.6189 100.649 20.3808 100.08C7.9046 99.3204 3.33317 95.525 2.57126 83.5695C1.23793 61.8407 3.61888 38.7836 2.57126 16.865C3.14269 12.3105 3.23793 6.99696 7.14269 3.67597C12.2855 -0.593868 28.476 -0.30921 35.1427 0.449873C41.8094 1.20896 46.7617 3.4862 48.3808 10.8873C48.476 11.4566 48.9522 13.8287 48.9522 14.2083V29.4848H28.857V19.9963C28.857 17.719 25.4284 17.0548 23.9046 18.8576V81.8615C25.5236 82.2411 27.9046 82.8104 29.2379 81.6717V42.2943H48.9522V98.9409H48.857Z" fill="#231F20"/>
<path d="M187.048 1.58838V17.9087H175.143V25.2148H186.191V41.5351H175.143V98.9408H153.81V1.58838H187.048Z" fill="#231F20"/>
<path d="M135.333 1.58838V81.4819H147.619V98.9408H114.476V1.58838H135.333Z" fill="#231F20"/>
<path d="M109.333 105.108L116.857 150.369C117.048 150.369 117.524 149.894 117.524 149.799V105.108H132.572V194.585H113.524C110.667 181.396 108.762 167.922 105.81 154.638C105.619 153.879 105.429 153.025 105.238 152.266C105.048 151.507 105.619 151.223 104.476 151.412V194.49H89.4287V105.013H109.143L109.333 105.108Z" fill="#231F20"/>
<path d="M81.0475 194.585H62.3808V176.747H58.0951V194.585H40.5713V115.641C40.5713 114.976 41.3332 112.13 41.6189 111.371C42.7618 107.955 44.9522 105.962 48.4761 105.013C54.2856 103.305 69.6189 103.211 75.0475 105.772C77.0475 106.721 78.6665 108.429 79.6189 110.517C80.1903 111.845 81.1427 115.451 81.1427 116.874V194.775L81.0475 194.585ZM62.3808 161.85V121.049C61.4284 119.531 58.0951 120.1 58.0951 121.808V161.945H62.3808V161.85Z" fill="#231F20"/>
<path d="M160.667 105.108V136.515C161.524 136.515 161.238 136.515 161.333 135.946C162.857 125.699 163.905 115.261 166 105.108H184.667L176.952 142.303L186.476 194.585H167.429C164.762 180.163 163.524 165.455 161.333 150.938C161.333 150.274 161.524 150.369 160.667 150.369V194.585H142V105.108H160.667Z" fill="#231F20"/>
<path d="M36.1905 105.108V120.1H27.2381V194.585H8.66667V120.1H0V105.108H36.1905Z" fill="#231F20"/>
</svg>
